<?xml version="1.0" encoding="utf-8"?>
<!-- Svg Vector Icons : http://www.onlinewebfonts.com/icon -->
<!DOCTYPE svg PUBLIC "-//W3C//DTD SVG 1.1//EN" "http://www.w3.org/Graphics/SVG/1.1/DTD/svg11.dtd">
<svg version="1.1" xmlns="http://www.w3.org/2000/svg" xmlns:xlink="http://www.w3.org/1999/xlink" x="0px" y="0px" viewBox="0 0 1000 1000" enable-background="new 0 0 1000 1000" xml:space="preserve">
<metadata> Svg Vector Icons : http://www.onlinewebfonts.com/icon </metadata>
<g><g><g><g><rect x="135.4" y="182.8" width="477.4" height="65.6"/><path d="M749.9,366V27.7H10v823.4h429.2c56.1,73.5,144.3,121.2,243.9,121.2c169.5,0,306.9-137.4,306.9-306.9C990,518.9,887.3,396.5,749.9,366z M57.7,803.5c0-43.4,0-684.6,0-728c42.9,0,601.5,0,644.5,0c0,18.3,0,142.8,0,284c-6.4-0.4-12.7-1-19.2-1c-60.6,0-117,17.8-164.6,48.2H135.4v65.6h309.4c-35.9,44.2-59.6,98.6-66.4,158.1h-243v65.7h242.4c3.8,38.4,14.9,74.6,31.6,107.5C249.7,803.5,80.6,803.5,57.7,803.5z M860.9,707.3c-45.1,0-135.9,0-135.9,0s0,105.6,0,145.8h-83.8c0-40.2,0-145.8,0-145.8s-90.9,0-135.9,0.1v-83.7c45-0.2,135.9-0.2,135.9-0.2s0-105.7,0-145.8h83.7c0,40,0,145.8,0,145.8s90.8,0,135.9,0L860.9,707.3L860.9,707.3z"/></g></g><g></g><g></g><g></g><g></g><g></g><g></g><g></g><g></g><g></g><g></g><g></g><g></g><g></g><g></g><g></g></g><g></g><g></g><g></g><g></g><g></g><g></g><g></g><g></g><g></g><g></g><g></g><g></g><g></g><g></g><g></g></g>
</svg>